<?xml version="1.0" standalone="no"?>
<!DOCTYPE svg PUBLIC "-//W3C//DTD SVG 20010904//EN"
 "http://www.w3.org/TR/2001/REC-SVG-20010904/DTD/svg10.dtd">
<svg version="1.0" xmlns="http://www.w3.org/2000/svg"
 width="1000.000000pt" height="1000.000000pt" viewBox="0 0 1000.000000 1000.000000"
 preserveAspectRatio="xMidYMid meet">
<metadata>
Created by potrace 1.14, written by Peter Selinger 2001-2017
</metadata>
<g transform="translate(0.000000,1000.000000) scale(0.100000,-0.100000)"
fill="#000000" stroke="none">
<path d="M2868 8055 c-2 -1 -28 -5 -58 -8 -111 -12 -260 -75 -361 -153 -62
-48 -1507 -1474 -1564 -1544 -168 -206 -223 -486 -144 -739 21 -69 81 -195
105 -218 8 -8 14 -18 14 -23 0 -10 244 -255 814 -815 241 -236 549 -540 686
-675 137 -135 457 -450 711 -700 254 -250 586 -578 738 -728 746 -736 696
-691 822 -756 125 -64 225 -89 359 -90 148 -1 276 32 410 107 85 48 100 63
925 882 292 289 901 894 1354 1343 1370 1359 1441 1431 1487 1508 120 205 145
381 88 639 -11 51 -80 190 -121 246 -66 89 -1520 1541 -1588 1585 -102 67
-227 114 -346 129 -42 6 -4325 15 -4331 10z m3331 -2287 c0 -442 1 -815 1
-830 l0 -28 233 -2 c147 -2 231 -7 231 -13 -1 -5 -5 -44 -8 -85 -4 -41 -10
-104 -13 -140 -3 -36 -6 -80 -7 -97 l0 -33 -81 0 c-221 0 -1048 -1 -1172 0
l-141 0 1 183 2 182 261 3 260 2 0 505 c0 344 -3 505 -10 508 -6 2 -109 3
-229 2 -186 0 -218 2 -221 15 -2 8 -4 58 -6 110 -1 52 -3 117 -4 143 -1 26 1
50 5 52 10 7 57 12 169 20 52 4 97 9 100 10 3 2 46 6 95 10 50 4 93 12 96 17
3 5 6 57 5 115 -1 58 2 107 7 110 4 2 31 6 60 8 28 2 79 6 112 9 33 3 100 8
150 12 49 3 92 7 94 10 2 2 6 4 7 4 2 0 3 -361 3 -802z m-1894 187 c0 -175 3
-265 10 -266 5 0 119 -1 253 -1 l242 0 -2 -187 -3 -186 -220 -2 c-121 -1 -234
-2 -250 -2 l-30 -1 0 -267 0 -268 -197 -3 c-109 -1 -199 1 -199 5 -1 5 -2 124
-3 265 -1 141 -4 260 -8 263 -4 4 -118 8 -253 8 -172 0 -245 3 -246 11 -4 44
-3 349 1 356 3 4 116 7 252 6 159 -1 248 3 249 9 0 6 0 126 -1 268 l-1 257
203 0 203 0 0 -265z"/>
</g>
</svg>
